<mxfile host="app.diagrams.net" modified="2021-12-08T11:12:19.080Z" agent="5.0 (X11)" etag="UFncOWYew96oVVnJAd_C" version="15.9.1" type="github">
  <diagram id="R2lEEEUBdFMjLlhIrx00" name="Page-1">
    <mxGraphModel dx="1185" dy="767" grid="1" gridSize="10" guides="1" tooltips="1" connect="1" arrows="1" fold="1" page="1" pageScale="1" pageWidth="850" pageHeight="1100" math="0" shadow="0" extFonts="Permanent Marker^https://fonts.googleapis.com/css?family=Permanent+Marker">
      <root>
        <mxCell id="0" />
        <mxCell id="1" parent="0" />
        <mxCell id="Pq_C5fKfiTd_kP-b9lsP-4" value="&lt;div&gt;Motor driver&lt;/div&gt;&lt;div&gt;&amp;nbsp;(reader or writer mode)&lt;/div&gt;" style="rounded=0;whiteSpace=wrap;html=1;" parent="1" vertex="1">
          <mxGeometry x="570" y="450" width="130" height="110" as="geometry" />
        </mxCell>
        <mxCell id="Pq_C5fKfiTd_kP-b9lsP-5" value="Motor" style="ellipse;whiteSpace=wrap;html=1;aspect=fixed;" parent="1" vertex="1">
          <mxGeometry x="595" y="690" width="80" height="80" as="geometry" />
        </mxCell>
        <mxCell id="Pq_C5fKfiTd_kP-b9lsP-7" value="" style="shape=flexArrow;endArrow=classic;startArrow=classic;html=1;rounded=0;exitX=0.5;exitY=0;exitDx=0;exitDy=0;entryX=0.5;entryY=1;entryDx=0;entryDy=0;" parent="1" source="Pq_C5fKfiTd_kP-b9lsP-5" target="Pq_C5fKfiTd_kP-b9lsP-4" edge="1">
          <mxGeometry width="100" height="100" relative="1" as="geometry">
            <mxPoint x="380" y="430" as="sourcePoint" />
            <mxPoint x="480" y="330" as="targetPoint" />
          </mxGeometry>
        </mxCell>
        <mxCell id="Pq_C5fKfiTd_kP-b9lsP-8" value="&lt;div&gt;UDP communication&lt;/div&gt;&lt;div&gt;&lt;ul&gt;&lt;li&gt;Port : 8000&lt;/li&gt;&lt;/ul&gt;&lt;/div&gt;" style="rounded=1;whiteSpace=wrap;html=1;" parent="1" vertex="1">
          <mxGeometry x="100" y="25" width="190" height="80" as="geometry" />
        </mxCell>
        <mxCell id="Pq_C5fKfiTd_kP-b9lsP-9" value="" style="endArrow=none;dashed=1;html=1;dashPattern=1 3;strokeWidth=2;rounded=0;" parent="1" edge="1">
          <mxGeometry width="50" height="50" relative="1" as="geometry">
            <mxPoint x="30" y="410" as="sourcePoint" />
            <mxPoint x="840" y="410" as="targetPoint" />
          </mxGeometry>
        </mxCell>
        <mxCell id="Pq_C5fKfiTd_kP-b9lsP-10" value="Kernel space" style="text;html=1;strokeColor=none;fillColor=none;align=center;verticalAlign=middle;whiteSpace=wrap;rounded=0;" parent="1" vertex="1">
          <mxGeometry x="30" y="420" width="110" height="30" as="geometry" />
        </mxCell>
        <mxCell id="Pq_C5fKfiTd_kP-b9lsP-11" value="User space" style="text;html=1;strokeColor=none;fillColor=none;align=center;verticalAlign=middle;whiteSpace=wrap;rounded=0;" parent="1" vertex="1">
          <mxGeometry x="30" y="360" width="110" height="30" as="geometry" />
        </mxCell>
        <mxCell id="Pq_C5fKfiTd_kP-b9lsP-13" value="Shared memory" style="swimlane;fontStyle=0;childLayout=stackLayout;horizontal=1;startSize=30;horizontalStack=0;resizeParent=1;resizeParentMax=0;resizeLast=0;collapsible=1;marginBottom=0;resizeHeight=1;" parent="1" vertex="1">
          <mxGeometry x="410" y="140" width="140" height="150" as="geometry" />
        </mxCell>
        <mxCell id="Pq_C5fKfiTd_kP-b9lsP-14" value="Driver counter : int32" style="text;strokeColor=none;fillColor=none;align=left;verticalAlign=middle;spacingLeft=4;spacingRight=4;overflow=hidden;points=[[0,0.5],[1,0.5]];portConstraint=eastwest;rotatable=0;" parent="Pq_C5fKfiTd_kP-b9lsP-13" vertex="1">
          <mxGeometry y="30" width="140" height="30" as="geometry" />
        </mxCell>
        <mxCell id="Pq_C5fKfiTd_kP-b9lsP-29" value="PWM duty : int32" style="text;strokeColor=none;fillColor=none;align=left;verticalAlign=middle;spacingLeft=4;spacingRight=4;overflow=hidden;points=[[0,0.5],[1,0.5]];portConstraint=eastwest;rotatable=0;" parent="Pq_C5fKfiTd_kP-b9lsP-13" vertex="1">
          <mxGeometry y="60" width="140" height="30" as="geometry" />
        </mxCell>
        <mxCell id="Pq_C5fKfiTd_kP-b9lsP-23" value="IRQ_count: uint32" style="text;strokeColor=none;fillColor=none;align=left;verticalAlign=middle;spacingLeft=4;spacingRight=4;overflow=hidden;points=[[0,0.5],[1,0.5]];portConstraint=eastwest;rotatable=0;" parent="Pq_C5fKfiTd_kP-b9lsP-13" vertex="1">
          <mxGeometry y="90" width="140" height="30" as="geometry" />
        </mxCell>
        <mxCell id="Pq_C5fKfiTd_kP-b9lsP-15" value="Counter desired : int32" style="text;strokeColor=none;fillColor=none;align=left;verticalAlign=middle;spacingLeft=4;spacingRight=4;overflow=hidden;points=[[0,0.5],[1,0.5]];portConstraint=eastwest;rotatable=0;" parent="Pq_C5fKfiTd_kP-b9lsP-13" vertex="1">
          <mxGeometry y="120" width="140" height="30" as="geometry" />
        </mxCell>
        <mxCell id="Pq_C5fKfiTd_kP-b9lsP-20" value="" style="endArrow=classic;html=1;rounded=0;exitX=0;exitY=0.5;exitDx=0;exitDy=0;entryX=0.5;entryY=1;entryDx=0;entryDy=0;" parent="1" source="Pq_C5fKfiTd_kP-b9lsP-14" target="Pq_C5fKfiTd_kP-b9lsP-8" edge="1">
          <mxGeometry width="50" height="50" relative="1" as="geometry">
            <mxPoint x="410" y="410" as="sourcePoint" />
            <mxPoint x="460" y="360" as="targetPoint" />
            <Array as="points">
              <mxPoint x="300" y="185" />
              <mxPoint x="300" y="130" />
              <mxPoint x="195" y="130" />
            </Array>
          </mxGeometry>
        </mxCell>
        <mxCell id="Pq_C5fKfiTd_kP-b9lsP-32" value="&lt;div&gt;Web server&lt;/div&gt;" style="rounded=1;whiteSpace=wrap;html=1;" parent="1" vertex="1">
          <mxGeometry x="500" y="35" width="190" height="60" as="geometry" />
        </mxCell>
        <mxCell id="Pq_C5fKfiTd_kP-b9lsP-34" value="" style="endArrow=none;html=1;rounded=0;exitX=0;exitY=0.5;exitDx=0;exitDy=0;" parent="1" source="Pq_C5fKfiTd_kP-b9lsP-29" edge="1">
          <mxGeometry width="50" height="50" relative="1" as="geometry">
            <mxPoint x="370" y="360" as="sourcePoint" />
            <mxPoint x="370" y="215" as="targetPoint" />
          </mxGeometry>
        </mxCell>
        <mxCell id="Pq_C5fKfiTd_kP-b9lsP-35" value="" style="endArrow=none;html=1;rounded=0;strokeWidth=3;exitDx=0;exitDy=0;startArrow=none;startFill=1;" parent="1" source="Pq_C5fKfiTd_kP-b9lsP-42" edge="1">
          <mxGeometry width="50" height="50" relative="1" as="geometry">
            <mxPoint x="370" y="60" as="sourcePoint" />
            <mxPoint x="370" y="245" as="targetPoint" />
            <Array as="points">
              <mxPoint x="370" y="65" />
              <mxPoint x="370" y="270" />
            </Array>
          </mxGeometry>
        </mxCell>
        <mxCell id="Pq_C5fKfiTd_kP-b9lsP-38" value="" style="endArrow=classic;html=1;rounded=0;strokeWidth=1;entryX=1;entryY=0.5;entryDx=0;entryDy=0;" parent="1" target="Pq_C5fKfiTd_kP-b9lsP-23" edge="1">
          <mxGeometry width="50" height="50" relative="1" as="geometry">
            <mxPoint x="630" y="245" as="sourcePoint" />
            <mxPoint x="420" y="360" as="targetPoint" />
          </mxGeometry>
        </mxCell>
        <mxCell id="Pq_C5fKfiTd_kP-b9lsP-39" value="" style="endArrow=classic;html=1;rounded=0;strokeWidth=1;entryX=1;entryY=0.5;entryDx=0;entryDy=0;" parent="1" target="Pq_C5fKfiTd_kP-b9lsP-29" edge="1">
          <mxGeometry width="50" height="50" relative="1" as="geometry">
            <mxPoint x="630" y="214.57999999999987" as="sourcePoint" />
            <mxPoint x="580" y="215" as="targetPoint" />
          </mxGeometry>
        </mxCell>
        <mxCell id="Pq_C5fKfiTd_kP-b9lsP-40" value="" style="endArrow=classic;html=1;rounded=0;strokeWidth=1;entryX=1;entryY=0.5;entryDx=0;entryDy=0;" parent="1" target="Pq_C5fKfiTd_kP-b9lsP-14" edge="1">
          <mxGeometry width="50" height="50" relative="1" as="geometry">
            <mxPoint x="630" y="185" as="sourcePoint" />
            <mxPoint x="580" y="190.4199999999999" as="targetPoint" />
          </mxGeometry>
        </mxCell>
        <mxCell id="Pq_C5fKfiTd_kP-b9lsP-41" value="" style="endArrow=none;html=1;rounded=0;strokeWidth=3;arcSize=22;endFill=0;startArrow=none;startFill=0;exitX=0.456;exitY=-0.03;exitDx=0;exitDy=0;exitPerimeter=0;" parent="1" source="Pq_C5fKfiTd_kP-b9lsP-4" edge="1">
          <mxGeometry width="50" height="50" relative="1" as="geometry">
            <mxPoint x="630" y="430" as="sourcePoint" />
            <mxPoint x="630" y="185" as="targetPoint" />
          </mxGeometry>
        </mxCell>
        <mxCell id="Pq_C5fKfiTd_kP-b9lsP-42" value="" style="shape=waypoint;sketch=0;fillStyle=solid;size=6;pointerEvents=1;points=[];fillColor=none;resizable=0;rotatable=0;perimeter=centerPerimeter;snapToPoint=1;" parent="1" vertex="1">
          <mxGeometry x="350" y="165" width="40" height="40" as="geometry" />
        </mxCell>
        <mxCell id="Pq_C5fKfiTd_kP-b9lsP-44" value="" style="endArrow=none;html=1;rounded=0;entryDx=0;entryDy=0;strokeWidth=3;exitX=0;exitY=0.5;exitDx=0;exitDy=0;startArrow=block;startFill=1;" parent="1" source="Pq_C5fKfiTd_kP-b9lsP-32" target="Pq_C5fKfiTd_kP-b9lsP-42" edge="1">
          <mxGeometry width="50" height="50" relative="1" as="geometry">
            <mxPoint x="500" y="65" as="sourcePoint" />
            <mxPoint x="410" y="245" as="targetPoint" />
            <Array as="points">
              <mxPoint x="370" y="65" />
            </Array>
          </mxGeometry>
        </mxCell>
        <mxCell id="yrS3jWUVd6nLVM5ih09i-1" value="Semaphore" style="rhombus;whiteSpace=wrap;html=1;" vertex="1" parent="1">
          <mxGeometry x="300" y="465" width="80" height="80" as="geometry" />
        </mxCell>
        <mxCell id="yrS3jWUVd6nLVM5ih09i-11" style="edgeStyle=orthogonalEdgeStyle;rounded=0;orthogonalLoop=1;jettySize=auto;html=1;startArrow=none;startFill=0;endArrow=none;endFill=0;" edge="1" parent="1" source="Pq_C5fKfiTd_kP-b9lsP-15">
          <mxGeometry relative="1" as="geometry">
            <mxPoint x="370" y="270" as="targetPoint" />
            <Array as="points">
              <mxPoint x="400" y="270" />
              <mxPoint x="400" y="270" />
            </Array>
          </mxGeometry>
        </mxCell>
        <mxCell id="yrS3jWUVd6nLVM5ih09i-12" style="edgeStyle=orthogonalEdgeStyle;rounded=0;orthogonalLoop=1;jettySize=auto;html=1;startArrow=none;startFill=0;endArrow=none;endFill=0;" edge="1" parent="1" source="Pq_C5fKfiTd_kP-b9lsP-23">
          <mxGeometry relative="1" as="geometry">
            <mxPoint x="370" y="245" as="targetPoint" />
          </mxGeometry>
        </mxCell>
        <mxCell id="yrS3jWUVd6nLVM5ih09i-14" value="" style="endArrow=classic;html=1;rounded=0;exitX=0.314;exitY=1.001;exitDx=0;exitDy=0;exitPerimeter=0;entryX=-0.009;entryY=0.714;entryDx=0;entryDy=0;entryPerimeter=0;" edge="1" parent="1" source="Pq_C5fKfiTd_kP-b9lsP-8" target="Pq_C5fKfiTd_kP-b9lsP-15">
          <mxGeometry width="50" height="50" relative="1" as="geometry">
            <mxPoint x="360" y="320" as="sourcePoint" />
            <mxPoint x="260" y="220" as="targetPoint" />
            <Array as="points">
              <mxPoint x="160" y="150" />
              <mxPoint x="250" y="150" />
              <mxPoint x="250" y="281" />
            </Array>
          </mxGeometry>
        </mxCell>
        <mxCell id="yrS3jWUVd6nLVM5ih09i-15" style="edgeStyle=orthogonalEdgeStyle;rounded=0;orthogonalLoop=1;jettySize=auto;html=1;startArrow=none;startFill=0;endArrow=classic;endFill=1;" edge="1" parent="1" source="Pq_C5fKfiTd_kP-b9lsP-15" target="Pq_C5fKfiTd_kP-b9lsP-4">
          <mxGeometry relative="1" as="geometry">
            <mxPoint x="610" y="275" as="targetPoint" />
            <Array as="points">
              <mxPoint x="610" y="275" />
            </Array>
          </mxGeometry>
        </mxCell>
        <mxCell id="yrS3jWUVd6nLVM5ih09i-16" value="" style="endArrow=classic;html=1;rounded=0;exitX=0.25;exitY=1;exitDx=0;exitDy=0;entryX=0.5;entryY=0;entryDx=0;entryDy=0;" edge="1" parent="1" source="Pq_C5fKfiTd_kP-b9lsP-8" target="yrS3jWUVd6nLVM5ih09i-1">
          <mxGeometry width="50" height="50" relative="1" as="geometry">
            <mxPoint x="540" y="290" as="sourcePoint" />
            <mxPoint x="590" y="240" as="targetPoint" />
            <Array as="points">
              <mxPoint x="148" y="320" />
              <mxPoint x="340" y="320" />
            </Array>
          </mxGeometry>
        </mxCell>
        <mxCell id="yrS3jWUVd6nLVM5ih09i-17" value="" style="endArrow=classic;html=1;rounded=0;exitX=1;exitY=0.5;exitDx=0;exitDy=0;entryX=0;entryY=0.5;entryDx=0;entryDy=0;startArrow=classic;startFill=1;" edge="1" parent="1" source="yrS3jWUVd6nLVM5ih09i-1" target="Pq_C5fKfiTd_kP-b9lsP-4">
          <mxGeometry width="50" height="50" relative="1" as="geometry">
            <mxPoint x="540" y="290" as="sourcePoint" />
            <mxPoint x="590" y="240" as="targetPoint" />
          </mxGeometry>
        </mxCell>
      </root>
    </mxGraphModel>
  </diagram>
</mxfile>
